<svg xmlns="http://www.w3.org/2000/svg" xmlns:xlink="http://www.w3.org/1999/xlink" xmlns:inkscape="http://www.inkscape.org/namespaces/inkscape" version="1.1" width="1920" height="1920" viewBox="0 0 1920 1920">
<defs>
<clipPath id="clip_0">
<path transform="matrix(1,0,0,-1,0,1920)" d="M0 1920H1920V0H0Z"/>
</clipPath>
</defs>
<g inkscape:groupmode="layer" inkscape:label="Vrstva 1">
<g clip-path="url(#clip_0)">
<path transform="matrix(1,0,0,-1,526.2798,1106.8106)" d="M0 0V-129.119C39.85-129.119 79.09-129.38 118.32-128.949 128.73-128.84 138.14-124.489 145.58-116.739 165.77-95.739 169.96-70.579 163.28-43.34 155.79-12.77 137.79 .771 106.6 .78 75.41 .791 44.29 .78 13.14 .78 8.72 .811 4.37 .291 0 .021ZM-.47-142V-270.27H-61.13V13.65H-52.34 152.84C193.84 13.65 225.91-16.77 227.63-57.689 229.06-91.539 217.48-119.129 185.78-134.609 176.27-139.25 164.72-141.55 154.06-141.72 105.59-142.439 57.06-142.029 8.64-142.02Z"/>
<path transform="matrix(1,0,0,-1,1361.3701,1317.7803)" d="M0 0C-15.84-22.26-35.76-36.71-58.67-47.14-98.19-65.14-139.91-70.33-182.89-66.96-214.771-64.45-245.4-57.319-273.44-41.25-318.53-15.399-340.01 24.25-341.72 75.47-342.561 100.641-339.12 124.96-328.34 148.011-312.05 182.86-284.12 204.931-248.75 217.011-176.24 241.851-105.25 239.62-37.63 200.36-20.87 190.62-6.99 176.36 .46 163.15-12.32 163.15-24.54 163.92-36.54 162.931-48.341 161.931-55.67 165.19-62.36 175.931-74.99 196.23-94.72 208.44-117.75 214.511-143.212 221.173-169.9 221.618-195.57 215.811-233.83 207.44-259.681 184.3-271.41 147.2-284.73 105.05-284.97 62.141-272.311 19.721-259.21-24.159-228.2-47.409-183.51-53.279-162.09-56.09-140.7-55.83-119.51-50.59-92.76-43.97-72.21-28.88-57.72-5.59-55.21-1.59-52.72 .2-47.87 .101-32.5-.22-17.07 0 0 0"/>
<path transform="matrix(1,0,0,-1,1011.6201,1093.6104)" d="M0 0V-12.22H-170.93V-142.22H-70.32C-74.89-154.489-75.91-155.22-87.76-155.22H-170.76V-271.09H24.16V-283.479H-232.08V0Z"/>
<path transform="matrix(1,0,0,-1,257.4902,1105.6699)" d="M0 0H-130.65V11.88H190.65V.29H61.28V-271.48H0Z"/>
<path transform="matrix(1,0,0,-1,846.7803,843.1499)" d="M0 0 213.55 182 184.36 199.35 360.36 309.76 361.97 307.58 214.97 182.26 310.85 126.83 1.02-1.64Z"/>
<path transform="matrix(1,0,0,-1,0,1920)" d="M1454.65 542.67H1394.2991V826.51H1454.65Z"/>
<path transform="matrix(1,0,0,-1,1768.1504,1320.8799)" d="M0 0H-20.33C-28.41 75.72-36.48 151.24-44.61 227.34H24.239C16.18 151.729 8.13 76.26 0 0"/>
<path transform="matrix(1,0,0,-1,1502.5703,1235.21)" d="M0 0C17.72 0 33.72-1.25 49.439 .35 65.33 1.96 74.18-4.09 82.83-17.11 109.13-56.729 137.02-95.29 164.27-134.271 165.869-136.55 167.27-138.94 169.63-142.521 152.789-142.521 137.069-141.21 121.63-142.87 104.63-144.7 95.01-138.229 85.779-124.229 59.46-84.32 31.409-45.55 4.05-6.33 3.08-4.86 2.16-3.34 0 0"/>
<path transform="matrix(1,0,0,-1,1590,1093.7305)" d="M0 0C-12.79-18.369-25.09-36.109-37.46-53.81-55.87-80.17-74.72-106.22-92.46-132.979-98.13-141.5-104.46-143.38-114.28-140.89-112.64-138.33-111.28-135.989-109.7-133.76-80.52-91.979-50.98-50.439-22.4-8.25-16.4 .631-9.87 1.62 0 0"/>
<path transform="matrix(1,0,0,-1,0,1920)" d="M1740.15 578.46H1776.06V542.66006H1740.15Z"/>
</g>
</g>
</svg>
